<svg width="32" height="32" viewBox="0 0 32 32" fill="none" xmlns="http://www.w3.org/2000/svg">
<g clip-path="url(#clip0)">
<path d="M16 32C24.8366 32 32 24.8366 32 16C32 7.16344 24.8366 0 16 0C7.16344 0 0 7.16344 0 16C0 24.8366 7.16344 32 16 32Z" fill="white"/>
<path d="M15.999 32.0019C7.17644 32.0019 0 24.8236 0 16.001C0 7.17835 7.17644 0 15.999 0C24.8216 0 32 7.17835 32 16.001C32 24.8236 24.822 32.0019 15.999 32.0019ZM15.999 1.33344C7.91351 1.33344 1.33153 7.91312 1.33153 16.001C1.33153 24.0888 7.91351 30.6685 15.999 30.6685C24.0846 30.6685 30.6666 24.0888 30.6666 16.001C30.6666 7.91312 24.0869 1.33344 15.999 1.33344Z" fill="#EFF3F5"/>
<path d="M16 28C22.6274 28 28 22.6274 28 16C28 9.37258 22.6274 4 16 4C9.37258 4 4 9.37258 4 16C4 22.6274 9.37258 28 16 28Z" fill="white"/>
<mask id="mask0" mask-type="alpha" maskUnits="userSpaceOnUse" x="3" y="4" width="25" height="24">
<path d="M15.9999 28C22.6273 28 27.9999 22.6274 27.9999 16C27.9999 9.37258 22.6273 4 15.9999 4C9.37246 4 3.99988 9.37258 3.99988 16C3.99988 22.6274 9.37246 28 15.9999 28Z" fill="white"/>
</mask>
<g mask="url(#mask0)">
<path d="M1.59998 5.33334H30.3317V26.2292H1.59998V5.33334Z" fill="white"/>
<path d="M-1.92004 5.33334H33.9947V9.41456H-1.92004V5.33334Z" fill="#0038B8"/>
<path d="M-1.92004 22.4745H33.9947V26.5557H-1.92004V22.4745Z" fill="#0038B8"/>
<path fill-rule="evenodd" clip-rule="evenodd" d="M11.9175 18.3231H20.1573L16.0374 11.1873L11.9175 18.3231ZM16.0374 20.7017L20.1572 13.5659H11.9175L16.0374 20.7017Z" stroke="#0038B8" stroke-width="0.897868"/>
</g>
</g>
<defs>
<clipPath id="clip0">
<rect width="32" height="32" fill="white"/>
</clipPath>
</defs>
</svg>
